<mxfile host="app.diagrams.net" agent="Mozilla/5.0 (X11; Linux x86_64; rv:139.0) Gecko/20100101 Firefox/139.0" version="27.0.9">
  <diagram name="Page-1" id="IFFKxQ3RQtwXwW91nyBR">
    <mxGraphModel dx="1426" dy="735" grid="1" gridSize="10" guides="1" tooltips="1" connect="1" arrows="1" fold="1" page="1" pageScale="1" pageWidth="850" pageHeight="1100" math="0" shadow="0">
      <root>
        <mxCell id="0" />
        <mxCell id="1" parent="0" />
        <mxCell id="nEntLCxVAZ6xf2vCUz8b-9" style="edgeStyle=orthogonalEdgeStyle;rounded=0;orthogonalLoop=1;jettySize=auto;html=1;entryX=0;entryY=0.5;entryDx=0;entryDy=0;" edge="1" parent="1" source="nEntLCxVAZ6xf2vCUz8b-1" target="nEntLCxVAZ6xf2vCUz8b-11">
          <mxGeometry relative="1" as="geometry">
            <mxPoint x="635" y="158" as="targetPoint" />
          </mxGeometry>
        </mxCell>
        <mxCell id="nEntLCxVAZ6xf2vCUz8b-1" value="Internet" style="ellipse;shape=cloud;whiteSpace=wrap;html=1;" vertex="1" parent="1">
          <mxGeometry x="350" y="120" width="120" height="80" as="geometry" />
        </mxCell>
        <mxCell id="nEntLCxVAZ6xf2vCUz8b-2" value="You" style="shape=umlActor;verticalLabelPosition=bottom;verticalAlign=top;html=1;outlineConnect=0;" vertex="1" parent="1">
          <mxGeometry x="80" y="130" width="30" height="60" as="geometry" />
        </mxCell>
        <mxCell id="nEntLCxVAZ6xf2vCUz8b-3" value="" style="image;points=[];aspect=fixed;html=1;align=center;shadow=0;dashed=0;image=img/lib/allied_telesis/computer_and_terminals/Personal_Computer_with_Server.svg;" vertex="1" parent="1">
          <mxGeometry x="180" y="137.6" width="62.400000000000006" height="62.400000000000006" as="geometry" />
        </mxCell>
        <mxCell id="nEntLCxVAZ6xf2vCUz8b-4" style="edgeStyle=orthogonalEdgeStyle;rounded=0;orthogonalLoop=1;jettySize=auto;html=1;entryX=0;entryY=0.375;entryDx=0;entryDy=0;entryPerimeter=0;" edge="1" parent="1" source="nEntLCxVAZ6xf2vCUz8b-2" target="nEntLCxVAZ6xf2vCUz8b-3">
          <mxGeometry relative="1" as="geometry" />
        </mxCell>
        <mxCell id="nEntLCxVAZ6xf2vCUz8b-5" style="edgeStyle=orthogonalEdgeStyle;rounded=0;orthogonalLoop=1;jettySize=auto;html=1;entryX=0.07;entryY=0.4;entryDx=0;entryDy=0;entryPerimeter=0;" edge="1" parent="1" source="nEntLCxVAZ6xf2vCUz8b-3" target="nEntLCxVAZ6xf2vCUz8b-1">
          <mxGeometry relative="1" as="geometry" />
        </mxCell>
        <mxCell id="nEntLCxVAZ6xf2vCUz8b-10" value="Your computer (the client)" style="text;html=1;align=center;verticalAlign=middle;resizable=0;points=[];autosize=1;strokeColor=none;fillColor=none;" vertex="1" parent="1">
          <mxGeometry x="110" y="198" width="160" height="30" as="geometry" />
        </mxCell>
        <mxCell id="nEntLCxVAZ6xf2vCUz8b-11" value="&lt;div&gt;&amp;nbsp; &amp;nbsp; &amp;nbsp; &amp;nbsp; &amp;nbsp; Your server / VM (the host server)&lt;/div&gt;" style="points=[[0,0],[0.25,0],[0.5,0],[0.75,0],[1,0],[1,0.25],[1,0.5],[1,0.75],[1,1],[0.75,1],[0.5,1],[0.25,1],[0,1],[0,0.75],[0,0.5],[0,0.25]];outlineConnect=0;gradientColor=none;html=1;whiteSpace=wrap;fontSize=12;fontStyle=0;container=1;pointerEvents=0;collapsible=0;recursiveResize=0;shape=mxgraph.aws4.group;grIcon=mxgraph.aws4.group_on_premise;strokeColor=#7D8998;fillColor=none;verticalAlign=top;align=left;spacingLeft=30;fontColor=#5A6C86;dashed=0;" vertex="1" parent="1">
          <mxGeometry x="540" y="80" width="270" height="228" as="geometry" />
        </mxCell>
        <mxCell id="nEntLCxVAZ6xf2vCUz8b-17" style="edgeStyle=orthogonalEdgeStyle;rounded=0;orthogonalLoop=1;jettySize=auto;html=1;entryX=0.5;entryY=0;entryDx=0;entryDy=0;" edge="1" parent="nEntLCxVAZ6xf2vCUz8b-11" source="nEntLCxVAZ6xf2vCUz8b-12" target="nEntLCxVAZ6xf2vCUz8b-15">
          <mxGeometry relative="1" as="geometry" />
        </mxCell>
        <mxCell id="nEntLCxVAZ6xf2vCUz8b-12" value="" style="image;sketch=0;aspect=fixed;html=1;points=[];align=center;fontSize=12;image=img/lib/mscae/Docker.svg;" vertex="1" parent="nEntLCxVAZ6xf2vCUz8b-11">
          <mxGeometry x="190" y="53.500000000000014" width="50" height="41" as="geometry" />
        </mxCell>
        <mxCell id="nEntLCxVAZ6xf2vCUz8b-15" value="" style="shape=image;html=1;verticalAlign=top;verticalLabelPosition=bottom;labelBackgroundColor=#ffffff;imageAspect=0;aspect=fixed;image=https://cdn4.iconfinder.com/data/icons/socialcones/508/Gitlab-128.png" vertex="1" parent="nEntLCxVAZ6xf2vCUz8b-11">
          <mxGeometry x="176" y="140" width="78" height="78" as="geometry" />
        </mxCell>
        <mxCell id="nEntLCxVAZ6xf2vCUz8b-13" value="SSH server" style="shape=rect;fillColor=#FA4D56;aspect=fixed;resizable=0;labelPosition=center;verticalLabelPosition=bottom;align=center;verticalAlign=top;strokeColor=none;fontSize=14;" vertex="1" parent="nEntLCxVAZ6xf2vCUz8b-11">
          <mxGeometry x="30" y="50" width="48" height="48" as="geometry" />
        </mxCell>
        <mxCell id="nEntLCxVAZ6xf2vCUz8b-14" value="" style="fillColor=#ffffff;strokeColor=none;dashed=0;outlineConnect=0;html=1;labelPosition=center;verticalLabelPosition=bottom;verticalAlign=top;part=1;movable=0;resizable=0;rotatable=0;shape=mxgraph.ibm_cloud.password" vertex="1" parent="nEntLCxVAZ6xf2vCUz8b-13">
          <mxGeometry width="24" height="24" relative="1" as="geometry">
            <mxPoint x="12" y="12" as="offset" />
          </mxGeometry>
        </mxCell>
        <mxCell id="nEntLCxVAZ6xf2vCUz8b-18" style="edgeStyle=orthogonalEdgeStyle;rounded=0;orthogonalLoop=1;jettySize=auto;html=1;entryX=-0.04;entryY=0.488;entryDx=0;entryDy=0;entryPerimeter=0;" edge="1" parent="nEntLCxVAZ6xf2vCUz8b-11" source="nEntLCxVAZ6xf2vCUz8b-13" target="nEntLCxVAZ6xf2vCUz8b-12">
          <mxGeometry relative="1" as="geometry" />
        </mxCell>
        <mxCell id="nEntLCxVAZ6xf2vCUz8b-19" style="edgeStyle=orthogonalEdgeStyle;rounded=0;orthogonalLoop=1;jettySize=auto;html=1;entryX=0.5;entryY=0;entryDx=0;entryDy=0;" edge="1" parent="nEntLCxVAZ6xf2vCUz8b-11" source="nEntLCxVAZ6xf2vCUz8b-11" target="nEntLCxVAZ6xf2vCUz8b-13">
          <mxGeometry relative="1" as="geometry" />
        </mxCell>
        <mxCell id="nEntLCxVAZ6xf2vCUz8b-21" value="Shell wrapper" style="text;html=1;align=center;verticalAlign=middle;resizable=0;points=[];autosize=1;strokeColor=none;fillColor=none;" vertex="1" parent="nEntLCxVAZ6xf2vCUz8b-11">
          <mxGeometry x="85" y="38" width="100" height="30" as="geometry" />
        </mxCell>
        <mxCell id="nEntLCxVAZ6xf2vCUz8b-20" value="Port 22" style="text;html=1;align=center;verticalAlign=middle;whiteSpace=wrap;rounded=0;" vertex="1" parent="1">
          <mxGeometry x="600" y="20" width="60" height="30" as="geometry" />
        </mxCell>
      </root>
    </mxGraphModel>
  </diagram>
</mxfile>
